<?xml version="1.0" encoding="UTF-8"?>
<svg viewBox="0 0 640 480" xmlns="http://www.w3.org/2000/svg">
 <path d="m179.55 443.04c-3.1419-3.962-4.6308-12.588-3.3548-19.436 1.2699-6.8141 1.7021-7.6786 14.866-29.734 19.458-32.6 26.388-50.11 39.909-100.84 0.59274-2.2238-2.2819-5.0028-5.175-5.0028-3.7606 0-6.639 2.7841-8.4405 8.1642-2.0322 6.0688-3.3639 7.3095-8.5924 8.0052-4.9887 0.66379-10.931-1.6993-13.303-5.2899-1.6773-2.5393-1.672-3.1917 0.097641-11.838 1.768-8.6392 1.7747-9.4059 0.11781-13.709-4.9236-12.788-17.078-14.31-24.051-3.011-4.69 7.5999-14.908 20.649-20.824 26.595-10.475 10.527-17.322 10.863-24.382 1.1963-2.3349-3.1972-3.0958-5.3699-3.0958-8.8398 0-3.9982 0.51013-5.0658 3.8953-8.1516 4.9872-4.5463 12.023-8.4255 23.112-12.743 15.098-5.8787 21.748-11.101 25.512-20.036 2.7992-6.6453 1.4974-14.805-2.7191-17.043-6.1945-3.2885-13.486 2.2287-25.902 19.598-11.518 16.115-17.75 20.068-30.616 19.424-8.8937-0.4455-13.112-2.8082-17.972-10.065-4.4316-6.6181-5.712-11.479-5.2672-19.996 0.32768-6.2745 0.88386-8.0994 3.7007-12.143 3.9418-5.6585 11.095-10.424 19.048-12.69 3.246-0.92485 13.257-2.0578 22.852-2.5863 21.225-1.169 27.758-2.4482 51.084-10.002 11.793-3.8191 15.332-6.4425 15.332-11.365 0-2.9843-4.2885-7.1925-8.1324-7.9801-2.8235-0.57855-24.197-2.6482-27.365-2.6497-2.8848-0.001419-8.0029-5.0471-9.0935-8.9649-1.5704-5.6418 0.73401-10.195 5.8517-11.562 5.4484-1.4552 9.48-0.19212 19.534 6.12 4.5643 2.8658 11.48 6.1733 15.369 7.3502 6.7893 2.0548 7.253 2.0703 11.688 0.39035 8.922-3.3799 9.997-9.3421 3.8353-21.273-5.0838-9.8435-14.437-19.757-22.404-23.746-12.027-6.0225-19.863-15.587-24.764-30.23-1.951-5.8294-2.4083-9.3862-2.384-18.547 0.026596-10.047 0.34215-12.004 2.7783-17.232 6.0742-13.036 18.122-13.398 25.937-0.77978 2.5052 4.0447 3.2631 7.4918 6.1128 27.801 3.7323 26.599 5.1601 30.979 13.425 41.186 8.5572 10.567 16.087 13.952 20.748 9.3288 3.0552-3.0306 3.4893-6.3527 1.6356-12.517-0.91634-3.0473-1.9347-8.7861-2.263-12.753-0.51637-6.239-0.16197-8.5483 2.6253-17.108 5.2241-16.043 4.1998-22.978-5.7271-38.777-5.7738-9.1891-6.3335-13.192-2.4249-17.341 4.8651-5.1654 11.851-7.2068 14.368-4.1987 0.79909 0.95512 1.0905 7.7347 0.91893 21.38-0.2777 22.077-0.65118 20.407 8.043 35.952 2.9899 5.3461 5.6593 16.728 5.6855 24.242 0.010254 2.9646 0.70068 6.147 1.6141 7.4406 2.8892 4.0916 12.749 5.2546 16.911 1.9945 0.75211-0.58916 3.4159-4.2123 5.9195-8.0513 2.6042-3.9932 6.3474-8.1585 8.7477-9.7342 3.5961-2.3606 5.0046-2.6876 9.8564-2.2885 4.716 0.38794 6.3654 1.0972 9.8837 4.2501 3.3194 2.9747 5.0764 3.7845 8.2116 3.7845 8.3063 0 17.819-7.8276 17.819-14.662 0-1.663-1.4076-6.205-3.1281-10.093-4.6192-10.44-4.8805-14.426-1.5861-24.202 5.681-16.859 10.77-21.543 23.412-21.55 10.513-0.005276 17.731 4.9726 19.563 13.492 1.2255 5.7 0.33475 9.9324-4.7352 22.498-11.025 27.325-11.707 35.794-3.5355 43.9 2.1016 2.0847 5.7808 4.3727 8.176 5.0846 7.0359 2.091 12.047-0.43187 21.608-10.878 9.5548-10.44 14.474-12.945 20.506-10.445 3.1832 1.3193 3.9687 2.3412 5.3527 6.9642 0.89212 2.9799 1.6221 6.5551 1.6221 7.9449 0 10.957-10.153 21.819-23.372 25.004-2.8565 0.68835-7.4309 2.358-10.165 3.7104-15.683 7.7564-9.0342 23.93 9.8666 24.002 8.3776 0.031982 15.627-3.024 24.709-10.416 16.531-13.454 36.896-27.85 45.016-31.821 13.039-6.377 30.836-8.8212 43.357-5.9544 12.918 2.9578 17.919 15.877 11.264 29.096-3.4841 6.92-4.5056 7.2267-16.877 5.0677-19.843-3.4628-37.157-1.9107-54.434 4.8795-14.504 5.7005-30.13 14.102-32.811 17.643-5.5249 7.2946-4.1901 14.991 3.4829 20.082 9.2608 6.1442 11.556 8.7841 12.145 13.968 0.78247 6.8853-1.0152 10.218-8.2129 15.226-9.4962 6.6075-12.235 12.663-8.7413 19.324 2.169 4.1351 5.6699 7.0007 12.047 9.8608 8.3445 3.7424 14.093 4.2751 23.568 2.1841 11.34-2.5025 19.211-1.7222 26.98 2.6744 12.702 7.1885 19.432 15.91 23.783 30.824 1.5093 5.1734 1.9457 9.9799 1.9179 21.123-0.040802 16.287-1.329 21.339-6.8926 27.033-12.606 12.901-31.92-4.814-38.675-35.473-2.9143-13.227-6.2131-20.403-11.886-25.855-7.425-7.1361-25.825-14.472-32.966-13.143-4.5588 0.84836-11.379 7.6438-12.814 12.767-2.4172 8.6326-0.78076 13.986 7.7809 25.451 16.288 21.813 20.99 30.764 22.05 41.984 0.68012 7.196-0.57547 9.9716-5.8104 12.844-5.3088 2.9133-9.7032 3.6382-14.418 2.3787-5.5771-1.4897-8.7408-5.1174-9.2195-10.572-2.5075-28.573-4.2865-35.862-10.515-43.079-6.4996-7.532-17.116-10.337-25.683-6.7864-6.6437 2.7536-7.8136 6.6223-6.2801 20.768 0.55216 5.0935 0.41141 7.9891-0.46756 9.6181-1.3219 2.45-6.85 5.2475-10.37 5.2475-5.6484 0-14.097-12.896-18.725-28.582-2.8231-9.5686-5.5606-12.838-10.748-12.838-5.8857 0-8.7148 2.4214-10.686 9.1461-2.7076 9.2388-1.6259 17.813 4.5265 35.881 5.9991 17.618 6.7583 19.433 16.375 39.154 5.4076 11.09 7.1453 15.77 7.515 20.241 0.63208 7.6452-1.1762 12.881-5.3134 15.383-6.2646 3.7891-10.067 2.1154-15.036-6.6186-4.8281-8.486-6.2758-15.116-7.3875-33.833-1.5799-26.599-7.0002-49.901-16.203-69.659-4.4877-9.6347-6.1661-11.549-10.125-11.549-8.2582 0-14.575 8.4356-14.659 19.577-0.045624 6.0324 0.38266 7.4441 4.313 14.218 2.4001 4.1363 5.0756 9.6006 5.9458 12.143 1.5985 4.6705 1.9685 16.293 0.66956 21.036-1.0883 3.9738-6.6177 6.1788-15.499 6.1806-9.4674 0.001984-12.896-1.6267-15.141-7.1923-2.7094-6.7166-2.1161-13.131 2.4681-26.684 4.8653-14.384 5.5491-24.284 2.1852-31.632-2.0683-4.5172-6.5758-8.6772-9.4021-8.6772-6.0929 0-15.455 20.37-22.381 48.695-3.6922 15.1-4.9498 22.313-9.2963 53.312-2.8976 20.666-4.5497 26.487-9.3987 33.115-6.8067 9.3039-22.558 13.628-27.4 7.5224z" fill="#f3b5ab" fill-rule="evenodd" stroke="#f3b5ab"/>
</svg>
